<?xml version="1.0" ?><!DOCTYPE svg  PUBLIC '-//W3C//DTD SVG 1.1//EN'  'http://www.w3.org/Graphics/SVG/1.1/DTD/svg11.dtd'><svg enable-background="new 0 0 512 512" height="512px" id="Layer_1" version="1.1" viewBox="0 0 512 512" width="512px" xml:space="preserve" xmlns="http://www.w3.org/2000/svg" xmlns:xlink="http://www.w3.org/1999/xlink"><g><path d="M64,288H0v192c0,17.688,14.312,32,32,32h192v-64H64V288z"/><path d="M64,64h160V0H32C14.312,0,0,14.312,0,32v192h64V64z"/><path d="M448,448H288v64h192c17.688,0,32-14.312,32-32V288h-64V448z"/><path d="M480,0H288v64h160v160h64V32C512,14.312,497.688,0,480,0z"/><polygon points="288,224 288,128 224,128 224,224 128,224 128,288 224,288 224,384 288,384 288,288 384,288 384,224  "/></g></svg>