<?xml version="1.0" encoding="UTF-8"?>
<!-- Generator: Adobe Illustrator 15.0.2, SVG Export Plug-In . SVG Version: 6.00 Build 0)  -->
<!DOCTYPE svg PUBLIC "-//W3C//DTD SVG 1.1//EN" "http://www.w3.org/Graphics/SVG/1.1/DTD/svg11.dtd">
<svg xmlns="http://www.w3.org/2000/svg" xmlns:xlink="http://www.w3.org/1999/xlink" version="1.1" id="Layer_1" x="0px" y="0px" width="512px" height="512px" viewBox="0 0 512 512" enable-background="new 0 0 512 512" xml:space="preserve">
<path d="M512,0v512H0l102.171-102.171L140.342,448l15.079-15.079l-38.164-38.184l46.322-46.316l55.671,55.658L234.336,389  l-55.672-55.658l49.007-49.013L263.342,320l15.079-15.079l-35.664-35.684l46.322-46.316l53.171,53.158L357.342,261l-53.184-53.164  l47.684-47.672l44.5,44.507l15.079-15.085l-44.5-44.507l41.54-41.54l35.881,35.882l15.079-15.079l-35.882-35.881L512,0z   M448,234.664L234.664,448H448V234.664z" fill="#000000"/>
</svg>
