<?xml version="1.0"?>
<svg width="64" height="64" xmlns="http://www.w3.org/2000/svg" xmlns:svg="http://www.w3.org/2000/svg">
 <!-- Created with SVG-edit - http://svg-edit.googlecode.com/ -->
 <g>
  <path id="svg_1" d="m32.40139,4.93304c-7.087601,0 -14.0961,2.88461 -19.10793,7.89469c-5.01183,5.01008 -7.92962,11.987471 -7.92962,19.073c0,7.085529 2.917789,14.097851 7.92962,19.107929c4.837649,4.83596 11.541409,7.631371 18.374351,7.824821c0.057119,0.01231 0.454119,0.139729 0.454119,0.139729l0.034931,-0.104801c0.082458,0.000793 0.162041,0.034931 0.24453,0.034931c0.083038,0 0.16151,-0.034138 0.244518,-0.034931l0.034931,0.104801c0,0 0.309479,-0.12949 0.349331,-0.139729c6.86776,-0.168091 13.582901,-2.96521 18.44421,-7.824821c2.558201,-2.557301 4.55109,-5.63813 5.903549,-8.977581c1.297192,-3.202969 2.02607,-6.661488 2.02607,-10.130348c0,-6.23731 -2.366261,-12.312191 -6.322731,-17.1168c-0.003399,-0.02316 0.004902,-0.04488 0,-0.06986c-0.01733,-0.08745 -0.104527,-0.278851 -0.104797,-0.27945c-0.00053,-0.0012 -0.522991,-0.62815 -0.523979,-0.62878c-0.000351,-0.000219 -0.133453,-0.035319 -0.244534,-0.06987c-0.263657,-0.288369 -0.456879,-0.63165 -0.73357,-0.908239c-5.011837,-5.01008 -11.985397,-7.89469 -19.072998,-7.89469zm-2.130871,3.52816l0.104801,9.67623c-4.111691,-0.083611 -7.109831,-0.42367 -9.25704,-0.943171c1.19809,-2.26927 2.52453,-4.12441 3.912409,-5.414499c2.167501,-2.01478 3.950151,-2.85402 5.23983,-3.318561zm2.794582,0c1.280308,0.475491 3.02219,1.32859 5.065178,3.2487c1.42466,1.33897 2.78886,3.30364 3.982269,5.72888c-2.290817,0.40337 -5.38126,0.62105 -8.94265,0.69865l-0.10479,-9.67623l-0.000008,0zm5.728889,0.24452c4.00407,1.12309 7.793098,3.14814 10.72419,6.07821c0.034679,0.03466 0.070328,0.06991 0.104797,0.1048c-0.453747,0.31389 -0.92305,0.663 -1.9562,1.0829c-0.647388,0.263109 -1.90625,0.4774 -2.82951,0.73358c-1.382298,-2.98814 -3.027149,-5.368589 -4.785717,-7.021379c-0.422871,-0.39743 -0.835823,-0.64533 -1.257561,-0.9781l0,-0.00001zm-15.335251,0.76851c-0.10675,0.09503 -0.20775,0.145411 -0.31439,0.24453c-1.684971,1.566251 -3.298071,3.82322 -4.68092,6.567261c-0.3438,-0.14942 -1.035051,-0.273201 -1.29249,-0.41919c-0.95653,-0.542419 -1.36297,-1.022019 -1.537021,-1.29249c-0.024099,-0.03745 -0.01868,-0.0401 -0.034929,-0.06986c2.250089,-2.163341 4.948819,-3.86998 7.85975,-5.03024l0,-0.00001zm-9.6413,7.091249c0.46498,0.571621 0.93773,1.16905 1.95621,1.746611c0.3499,0.19842 1.107141,0.3354 1.537021,0.523979c-1.20166,3.172991 -1.998041,7.051901 -2.165801,11.772161c-0.888309,-0.246851 -2.21005,-0.446751 -2.86444,-0.698641c-1.63599,-0.62973 -2.591539,-1.234699 -3.10897,-1.641819c-0.51743,-0.40711 -0.52398,-0.48905 -0.52398,-0.48905l-0.06987,0.034929c0.73242,-4.12237 2.58564,-8.01512 5.23983,-11.248171zm37.552151,0.523981c2.548931,3.28998 4.26506,7.2026 4.890518,11.318039c-0.650429,0.4109 -1.756878,1.00194 -3.563087,1.606892c-1.171551,0.39238 -3.16386,0.75915 -4.960381,1.117828c-0.043671,-4.752699 -0.784809,-8.591419 -1.886341,-11.807098c0.91758,-0.263672 2.170551,-0.48649 2.864449,-0.768511c1.274693,-0.518061 2.003941,-1.001551 2.654842,-1.46715zm-31.439011,2.619919c2.48735,0.67276 5.77582,1.137772 10.47967,1.222631l0.104801,10.689259l0,0.034931l0,0.733578c-5.435001,-0.090588 -9.51222,-0.519049 -12.61054,-1.117828c0.106129,-4.77669 0.879339,-8.557909 2.026079,-11.562571l-0.00001,0zm23.26487,0.31439c1.07346,3.067541 1.833801,6.82131 1.816479,11.702301c-3.054478,0.423241 -7.062019,0.64856 -11.702297,0.698639l0,-0.838369l-0.104801,-10.654329c4.08242,-0.086401 7.404469,-0.403891 9.99062,-0.908241zm-34.93223,10.898851c0.75587,0.51055 1.55296,1.01334 3.00417,1.571951c0.93752,0.360878 2.6122,0.647648 3.91241,0.978107c0.11282,3.855659 0.70399,7.10775 1.60689,9.92075c-1.14718,-0.324257 -2.64456,-0.640648 -3.42336,-0.9781c-1.51669,-0.657181 -2.38663,-1.287331 -2.86445,-1.711678c-0.477811,-0.424351 -0.48905,-0.489052 -0.48905,-0.489052l-0.209591,0.10479c-1.00855,-2.69762 -1.64182,-5.549809 -1.64182,-8.418659c0,-0.33016 0.09059,-0.64817 0.1048,-0.978109zm83.208582,-10.479671c0.0047,0.18898 0.069855,0.369911 0.069855,0.55892c0,2.938871 -0.620224,5.87356 -1.67675,8.628262c-0.074348,0.075829 -0.065514,0.07411 -0.454117,0.349319c-0.606972,0.429859 -1.631668,1.042049 -3.318558,1.67675c-1.208534,0.454708 -3.204971,0.850891 -5.13504,1.257561c0.845932,-2.765732 1.418076,-6.005362 1.60688,-9.815962c2.232368,-0.41337 4.483757,-0.840199 5.938477,-1.327419c1.410629,-0.47246 2.153114,-0.89469 2.969238,-1.327431l0.000015,0zm-38.530262,2.86445c3.208149,0.566971 7.37228,0.89859 12.575611,0.9781l0.17466,9.885822c-4.392521,-0.061394 -8.10672,-0.32056 -10.86393,-0.80344c-1.051952,-2.664692 -1.692902,-6.043791 -1.886341,-10.060482zm26.793034,0.31439c-0.2463,3.92355 -0.877777,7.26368 -1.816483,9.88582c-2.561958,0.36195 -5.766251,0.560711 -9.431702,0.62878l-0.17466,-9.81596c4.49173,-0.04969 8.33477,-0.293032 11.422844,-0.698641zm-67.698673,21.238791c0.09977,0.045231 0.10554,0.09465 0.20959,0.139729c1.33766,0.579613 3.4411,1.058083 5.58916,1.537022c1.54504,3.399208 3.548531,5.969398 5.589161,7.78989c-3.03441,-1.215542 -5.87162,-3.00798 -8.174141,-5.3097c-1.24591,-1.24548 -2.2718,-2.66296 -3.21377,-4.15694zm108.394718,-21.238791c-0.941978,1.493971 -1.967857,2.911461 -3.213768,4.156931c-2.742531,2.74157 -6.24411,4.69672 -9.955688,5.868618c0.261345,-0.241077 0.5075,-0.394489 0.768509,-0.663708c1.674843,-1.727522 3.320801,-4.181061 4.645988,-7.265911c2.962448,-0.503019 5.408974,-1.12229 7.16111,-1.78154c0.284027,-0.106871 0.337288,-0.207331 0.593849,-0.31439zm-31.404076,2.305521c2.645805,0.37645 5.70118,0.65 9.466629,0.698648l0.139725,7.789892c-1.38739,-0.48085 -3.316208,-1.29837 -5.659019,-3.388432c-1.388817,-1.238991 -2.743668,-3.011299 -3.947334,-5.100109zm20.365486,0.104799c-1.048721,2.041941 -2.174339,3.77907 -3.353485,4.99531c-1.85318,1.911461 -3.425522,2.82679 -4.611061,3.353489l-0.139732,-7.789879c3.130913,-0.05714 5.728241,-0.27873 8.104279,-0.55892z"/>
 </g>
</svg>